<svg xmlns="http://www.w3.org/2000/svg" width="32.21" height="37.71" viewBox="0 0 32.21 37.71"><defs><style>.a{fill:#455a64;}</style></defs><path class="a" d="M253.391,6.121A8.3,8.3,0,0,0,255.215,0a8.849,8.849,0,0,0-5.729,3.1,7.686,7.686,0,0,0-1.876,5.972A7.469,7.469,0,0,0,253.391,6.121Z" transform="translate(-232.041)"/><path class="a" d="M68.455,123.665a9.546,9.546,0,0,0-7.2-3.825c-3.382,0-4.813,1.619-7.162,1.619-2.423,0-4.264-1.614-7.188-1.614a9.781,9.781,0,0,0-7.872,4.758c-2.727,4.228-2.26,12.178,2.159,18.949,1.581,2.423,3.693,5.147,6.455,5.171,2.458.024,3.151-1.577,6.481-1.593s3.962,1.614,6.415,1.589c2.765-.021,4.992-3.04,6.573-5.463a27.17,27.17,0,0,0,2.435-4.572A8.314,8.314,0,0,1,68.455,123.665Z" transform="translate(-37.336 -111.014)"/></svg>