<svg xmlns="http://www.w3.org/2000/svg" width="35.491" height="35.491" viewBox="0 0 35.491 35.491"><defs><style>.a{fill:#fbbb00;}.b{fill:#518ef8;}.c{fill:#28b446;}.d{fill:#f14336;}</style></defs><path class="a" d="M7.866,150.131,6.63,154.743l-4.515.1a17.777,17.777,0,0,1-.131-16.571h0l4.02.737,1.761,4a10.591,10.591,0,0,0,.1,7.13Z" transform="translate(0 -128.683)"/><path class="b" d="M278.673,208.176a17.739,17.739,0,0,1-6.326,17.154h0l-5.063-.258-.717-4.474a10.576,10.576,0,0,0,4.551-5.4h-9.489v-7.02h17.046Z" transform="translate(-243.492 -193.745)"/><path class="c" d="M57.248,319.544h0a17.751,17.751,0,0,1-26.74-5.429l5.751-4.707a10.554,10.554,0,0,0,15.209,5.4Z" transform="translate(-28.394 -287.961)"/><path class="d" d="M55.713,4.085,49.964,8.792a10.553,10.553,0,0,0-15.558,5.526L28.625,9.585h0a17.749,17.749,0,0,1,27.089-5.5Z" transform="translate(-26.64)"/></svg>