<svg xmlns="http://www.w3.org/2000/svg" width="11.348" height="11.016" viewBox="0 0 11.348 11.016">
  <g id="Like" transform="matrix(0.995, 0.105, -0.105, 0.995, 1.489, 0.55)">
    <g id="Group_203" data-name="Group 203" transform="translate(0 0)">
      <path id="thumbs-up" d="M1.5,7.115a.379.379,0,0,0-.374-.374.358.358,0,0,0-.266.111.373.373,0,0,0,.266.638.364.364,0,0,0,.263-.108A.357.357,0,0,0,1.5,7.115Zm.936-3V7.864a.379.379,0,0,1-.374.374H.374a.36.36,0,0,1-.263-.111A.36.36,0,0,1,0,7.864V4.119a.36.36,0,0,1,.111-.263.36.36,0,0,1,.263-.111H2.059a.379.379,0,0,1,.374.374Zm6.928,0a1.283,1.283,0,0,1-.322.872,1.415,1.415,0,0,1,.088.445,1.214,1.214,0,0,1-.251.8,1.2,1.2,0,0,1,0,.684,1.139,1.139,0,0,1-.316.55,1.406,1.406,0,0,1-.287,1.059,1.454,1.454,0,0,1-1.153.456H6.365A4.342,4.342,0,0,1,5.523,8.9q-.456-.091-.711-.17t-.7-.231a4.3,4.3,0,0,0-.924-.257.386.386,0,0,1-.263-.114.351.351,0,0,1-.111-.26V4.113a.353.353,0,0,1,.105-.255.384.384,0,0,1,.251-.12q.14-.012.445-.345T4.2,2.686a8.628,8.628,0,0,1,.591-.7A.9.9,0,0,0,4.973,1.7a1.859,1.859,0,0,0,.1-.284q.026-.108.079-.354Q5.2.837,5.227.708A1.7,1.7,0,0,1,5.342.4a1.036,1.036,0,0,1,.2-.293A.36.36,0,0,1,5.8,0a1.747,1.747,0,0,1,.483.061,1.28,1.28,0,0,1,.351.152A.822.822,0,0,1,6.872.45a1.358,1.358,0,0,1,.14.263,1.46,1.46,0,0,1,.07.293,2.506,2.506,0,0,1,.029.263q0,.088,0,.228a1.825,1.825,0,0,1-.056.445,2.39,2.39,0,0,1-.111.351q-.055.129-.161.328-.018.035-.059.105a1,1,0,0,0-.064.129A1.473,1.473,0,0,0,6.617,3H8.238A1.139,1.139,0,0,1,9.361,4.119Z" fill="#fff" stroke="#bf8b59" stroke-width="1"/>
    </g>
  </g>
</svg>
